{"title":"Gallipoli[1981]DVDRIP[Eng+multisubs]","uid":9178338,"size":1515120835,"categoryP":"video","categoryS":"movies","magnet":"?xt=urn:btih:4163e77808b134f09c798d81f8118456bd55c991&amp;dn=Gallipoli%5B1981%5DDVDRIP%5BEng%2Bmultisubs%5D&amp;tr=udp%3A%2F%2Ftracker.openbittorrent.com%3A80&amp;tr=udp%3A%2F%2Fopen.demonii.com%3A1337&amp;tr=udp%3A%2F%2Ftracker.coppersurfer.tk%3A6969&amp;tr=udp%3A%2F%2Fexodus.desync.com%3A6969","seeders":5,"leechers":1,"uploader":"Fanchig","files":-1,"time":1384191559,"description":"Two Australian sprinters face the brutal realities of war when they are sent to fight in the Gallipoli campaign in Turkey during World War I. \n\nFormat                                   : Matroska\nFormat version                           : Version 4 / Version 2\nFile size                                : 1.41 GiB\nDuration                                 : 1h 46mn\nOverall bit rate                         : 1 889 Kbps\nEncoded date                             : UTC 2013-11-11 15:18:13\nWriting application                      : mkvmerge v6.4.1 ('Omega Point') built on Sep 16 2013 22:05:10\nWriting library                          : libebml v1.3.0 + libmatroska v1.4.1\n\nVideo\nID                                       : 1\nFormat                                   : AVC\nFormat/Info                              : Advanced Video Codec\nFormat profile                           : &lt;a class=&quot;__cf_email__&quot; href=&quot;/cdn-cgi/l/email-protection&quot; data-cfemail=&quot;2860414f4068641b0618&quot;&gt;[email&amp;#160;protected]&lt;/a&gt;&lt;script cf-hash='f9e31' type=&quot;text/javascript&quot;&gt;\n/* &lt;![CDATA[ */!function(){try{var t=&quot;currentScript&quot;in document?document.currentScript:function(){for(var t=document.getElementsByTagName(&quot;script&quot;),e=t.length;e--;)if(t[e].getAttribute(&quot;cf-hash&quot;))return t[e]}();if(t&amp;&amp;t.previousSibling){var e,r,n,i,c=t.previousSibling,a=c.getAttribute(&quot;data-cfemail&quot;);if(a){for(e=&quot;&quot;,r=parseInt(a.substr(0,2),16),n=2;a.length-n;n+=2)i=parseInt(a.substr(n,2),16)^r,e+=String.fromCharCode(i);e=document.createTextNode(e),c.parentNode.replaceChild(e,c)}}}catch(u){}}();/* ]]&gt; */&lt;/script&gt;\nFormat settings, CABAC                   : Yes\nFormat settings, ReFrames                : 4 frames\nCodec ID                                 : V_MPEG4/ISO/AVC\nDuration                                 : 1h 46mn\nBit rate                                 : 1 400 Kbps\nWidth                                    : 720 pixels\nHeight                                   : 576 pixels\nDisplay aspect ratio                     : 16:9\nFrame rate mode                          : Constant\nFrame rate                               : 25.000 fps\nStandard                                 : PAL\nColor space                              : YUV\nChroma subsampling                       : 4:2:0\nBit depth                                : 8 bits\nScan type                                : Progressive\nBits/(Pixel*Frame)                       : 0.135\nStream size                              : 1.05 GiB (74%)\nWriting library                          : x264 core 120 r2120 0c7dab9\nEncoding settings                        : cabac=1 // deblock=1:0:0 / analyse=0x3:0x113 / me=hex / subme=7 / psy=1 / psy_rd=1.00:0.00 // me_range=16 / chroma_me=1 / trellis=1 / 8x8dct=1 / cqm=0 / deadzone=21,11 / fast_pskip=1 / chroma_qp_offset=-2 / threads=3 / sliced_threads=0 / nr=0 / decimate=1 / interlaced=0 / bluray_compat=0 / constrained_intra=0 / bframes=3 / b_pyramid=2 / b_adapt=1 / b_bias=0 / direct=1 / weightb=1 / open_gop=0 / weightp=2 / keyint=250 / keyint_min=25 / scenecut=40 / intra_refresh=0 / rc_lookahead=40 / rc=2pass / mbtree=1 / bitrate=1400 / ratetol=1.0 / qcomp=0.60 / qpmin=0 / qpmax=51 / qpstep=4 / cplxblur=20.0 / qblur=0.5 / ip_ratio=1.40 / aq=1:1.00\nDefault                                  : Yes\nForced                                   : No\nMatrix coefficients                      : SMPTE 240M\n\nAudio\nID                                       : 2\nFormat                                   : AC-3\nFormat/Info                              : Audio Coding 3\nMode extension                           : CM (complete main)\nFormat settings, Endianness              : Big\nCodec ID                                 : A_AC3\nDuration                                 : 1h 46mn\nBit rate mode                            : Constant\nBit rate                                 : 448 Kbps\nChannel(s)                               : 6 channels\nChannel positions                        : Front: L C R, Side: L R, LFE\nSampling rate                            : 48.0 KHz\nBit depth                                : 16 bits\nCompression mode                         : Lossy\nStream size                              : 343 MiB (24%)\nLanguage                                 : English\nDefault                                  : Yes\nForced                                   : No\n\nSubtitles: (all VOBSUB) \n**********\nGreek, English, Spanish, French, Hebrew, Croatian, German, Swedish, Danish, Norwegian, Finnish, Dutch, Icelandic, Hungarian, Turkish, Romanian, Polish, Czech, Arabic, Bulgarian \n\nMenu\n00:00:00.000                             : en:As Fast as a Leopard\n00:09:24.640                             : en:The Distant War\n00:16:54.840                             : en:The Late Entry\n00:21:53.120                             : en:Not Coming Home\n00:26:33.040                             : en:Journey to Perth\n00:39:09.440                             : en:The Light Horse\n00:48:06.680                             : en:The Infantry\n00:54:47.760                             : en:Foreign Exchange\n01:00:25.360                             : en:Mates\n01:12:23.280                             : en:Front Lines\n01:21:20.920                             : en:A Blind Eye\n01:27:57.880                             : en:The Runner\n01:30:55.720                             : en:Push On\n01:37:25.560                             : en:The Final Race\n01:43:44.720                             : en:End Credits\n\nThanks to minOdroL for the orignal image rip.\n\nNow expecting Peter Jackson's remake planned for 100th anniversary of the landing, ie. 2015...","torrent":{"xt":"urn:btih:4163e77808b134f09c798d81f8118456bd55c991","amp;dn":"Gallipoli%5B1981%5DDVDRIP%5BEng%2Bmultisubs%5D","amp;tr":["udp%3A%2F%2Ftracker.openbittorrent.com%3A80","udp%3A%2F%2Fopen.demonii.com%3A1337","udp%3A%2F%2Ftracker.coppersurfer.tk%3A6969","udp%3A%2F%2Fexodus.desync.com%3A6969"],"infoHash":"4163e77808b134f09c798d81f8118456bd55c991","infoHashBuffer":{"type":"Buffer","data":[65,99,231,120,8,177,52,240,156,121,141,129,248,17,132,86,189,85,201,145]},"announce":[],"urlList":[]}}